<svg width="360" height="310" viewBox="0 0 360 310" preserveAspectRatio="none" fill="none" xmlns="http://www.w3.org/2000/svg">
<path fill-rule="evenodd" clip-rule="evenodd" d="M0 210.241L20.7031 154.432C43.3594 99.3867 84.375 154.432 125 182.719C165.039 225.932 302.148 301.926 343.359 307.334C301.563 313.332 385.156 307.334 343.359 307.334C322.266 304.566 385.938 309.628 343.359 307.334C385.156 307.334 319.922 307.334 343.359 307.334C385.156 307.334 301.563 307.334 343.359 307.334C301.563 307.334 166.797 307.334 125 307.334C83.2031 307.334 41.7969 307.334 20.7031 307.334H0V210.241Z" fill="#EDF040" fill-opacity="0.3"/>
<path fill-rule="evenodd" clip-rule="evenodd" d="M99.851 307.334C66.5215 307.334 117.622 307.334 99.851 307.334C133.18 300.9 163.711 293.469 200.035 277.491C233.788 262.643 300.023 214.458 300.023 214.458C300.023 214.458 363.688 181.782 428.133 97.8101C492.579 13.8385 463.676 52.1654 463.676 52.1654L500 0V307.334H483.4C466.736 307.334 433.341 307.334 400.012 307.334C366.682 307.334 333.353 307.334 300.023 307.334C266.694 307.334 232.583 307.334 199.253 307.334C165.924 307.334 133.18 307.334 99.851 307.334Z" fill="#5DE9FC" fill-opacity="0.3"/>
</svg>
