<svg width="1280" height="200" viewBox="0 0 1280 200" preserveAspectRatio="none" fill="none" xmlns="http://www.w3.org/2000/svg">
<path fill-rule="evenodd" clip-rule="evenodd" d="M0 136.996L53 100.63C111 64.7617 216 100.63 320 119.062C422.5 147.22 773.5 196.739 879 200.263C772 204.171 986 200.263 879 200.263C825 198.459 988 201.757 879 200.263C986 200.263 819 200.263 879 200.263C986 200.263 772 200.263 879 200.263C772 200.263 427 200.263 320 200.263C213 200.263 107 200.263 53 200.263H0V136.996Z" fill="#EDF040" fill-opacity="0.3"/>
<path fill-rule="evenodd" clip-rule="evenodd" d="M255.618 200.263C170.295 200.263 301.113 200.263 255.618 200.263C340.942 196.071 419.1 191.228 512.089 180.817C598.496 171.142 768.059 139.743 768.059 139.743C768.059 139.743 931.04 118.451 1096.02 63.7343C1261 9.01736 1187.01 33.9916 1187.01 33.9916L1280 0V200.263H1237.5C1194.84 200.263 1109.35 200.263 1024.03 200.263C938.706 200.263 853.383 200.263 768.059 200.263C682.736 200.263 595.412 200.263 510.089 200.263C424.765 200.263 340.942 200.263 255.618 200.263Z" fill="#5DE9FC" fill-opacity="0.3"/>
</svg>
